<svg width="100" height="100" viewBox="0 0 100 100" fill="none" xmlns="http://www.w3.org/2000/svg">
<path d="M100 94C100 95.5913 99.3679 97.1174 98.2426 98.2426C97.1174 99.3679 95.5913 100 94 100H6C4.4087 100 2.88258 99.3679 1.75736 98.2426C0.632141 97.1174 0 95.5913 0 94L0 6C0 4.4087 0.632141 2.88258 1.75736 1.75736C2.88258 0.632141 4.4087 0 6 0L94 0C95.5913 0 97.1174 0.632141 98.2426 1.75736C99.3679 2.88258 100 4.4087 100 6V94Z" fill="#E74C3C"/>
<path fill-rule="evenodd" clip-rule="evenodd" d="M68.494 10.847L50.207 0H74.59L68.494 10.847ZM33.832 0C33.62 0.913 33.284 1.81 32.805 2.662L21.059 23.57L0.443 11.342L0 11.048V6C0 4.4087 0.632141 2.88258 1.75736 1.75736C2.88258 0.632141 4.4087 0 6 0L33.832 0ZM2.658 49.794L4.613 46.315C5.24513 45.1756 6.10006 44.1751 7.12689 43.373C8.15372 42.5709 9.33146 41.9837 10.59 41.6462C11.8485 41.3087 13.162 41.2279 14.4524 41.4086C15.7428 41.5893 16.9836 42.0278 18.101 42.698C22.843 45.512 24.5 51.694 21.797 56.506L10.051 77.414L0 71.453V48.218L2.658 49.794ZM22.167 92.498C22.7991 91.3588 23.654 90.3584 24.6808 89.5564C25.7075 88.7544 26.8851 88.1671 28.1435 87.8297C29.4019 87.4922 30.7154 87.4113 32.0056 87.592C33.2959 87.7726 34.5366 88.211 35.654 88.881L39.086 90.914L41.042 87.435C41.6739 86.2956 42.5287 85.295 43.5554 84.4928C44.5822 83.6906 45.7598 83.1033 47.0183 82.7658C48.2768 82.4283 49.5903 82.3475 50.8806 82.5283C52.171 82.7091 53.4117 83.1477 54.529 83.818C59.271 86.634 60.929 92.814 58.226 97.627L56.895 100H21.189C20.571 97.541 20.843 94.855 22.167 92.498ZM57.488 64.691L36.872 52.463C32.126 49.648 30.474 43.466 33.175 38.654C33.8071 37.5148 34.662 36.5144 35.6888 35.7124C36.7155 34.9104 37.8932 34.3231 39.1515 33.9857C40.4099 33.6482 41.7234 33.5674 43.0136 33.748C44.3039 33.9286 45.5446 34.367 46.662 35.037L50.094 37.071L52.05 33.592C52.6823 32.4528 53.5372 31.4524 54.564 30.6503C55.5909 29.8483 56.7685 29.261 58.027 28.9234C59.2854 28.5859 60.5989 28.5049 61.8892 28.6854C63.1796 28.8659 64.4205 29.3041 65.538 29.974C70.28 32.791 71.938 38.972 69.235 43.785L57.488 64.691ZM84.309 39.741C79.563 36.926 77.911 30.744 80.612 25.931C81.2439 24.7917 82.0987 23.7912 83.1253 22.9892C84.152 22.1871 85.3295 21.5998 86.5879 21.2623C87.8462 20.9248 89.1596 20.844 90.4499 21.0247C91.7401 21.2054 92.9808 21.6438 94.098 22.314L97.53 24.348L99.487 20.869C99.645 20.586 99.819 20.315 100.001 20.054V49.049L84.309 39.741ZM73.301 93.584C68.555 90.77 66.903 84.588 69.604 79.775C70.236 78.6355 71.0909 77.6349 72.1177 76.8327C73.1445 76.0306 74.3223 75.4432 75.5808 75.1057C76.8394 74.7682 78.153 74.6875 79.4434 74.8683C80.7338 75.049 81.9746 75.4877 83.092 76.158L86.524 78.193L88.479 74.713C89.5745 72.7382 91.3248 71.2076 93.428 70.385C95.5311 69.5625 97.8554 69.4995 100 70.207V93.998C100 94.41 99.957 94.812 99.879 95.199L98.108 98.353C97.0002 99.408 95.5298 99.9975 94 100H84.115L73.301 93.584ZM7.093 96.541C8.52217 97.3896 9.7199 98.5777 10.58 100H6C3.157 100 0.789 98.018 0.17 95.363C2.54384 94.8794 5.01271 95.2995 7.093 96.541Z" fill="#35C68A"/>
<path opacity="0.15" fill-rule="evenodd" clip-rule="evenodd" d="M70.116 47.232C71.47 46.499 72.591 45.68 73.515 44.747C79.396 38.803 79.471 29.209 73.683 23.362C72.3215 21.9797 70.6975 20.8833 68.9064 20.1371C67.1154 19.391 65.1933 19.0102 63.253 19.017C59.21 19.017 55.398 20.62 52.5131 23.533C51.5671 24.49 50.741 25.657 50.002 27.072C49.262 25.652 48.4341 24.478 47.4841 23.519C44.6021 20.607 40.788 18.99 36.746 18.99C32.794 18.99 29.091 20.504 26.316 23.305C20.527 29.154 20.602 38.69 26.485 44.635C27.442 45.603 28.616 46.426 30.035 47.155C28.724 47.839 27.541 48.632 26.597 49.556C23.662 52.436 22.046 56.265 22.046 60.338C22.047 64.321 23.604 68.043 26.43 70.815C29.191 73.524 32.862 75.016 36.766 75.016C40.762 75.016 44.542 73.465 47.412 70.65C48.416 69.665 49.2691 68.421 49.9981 67.044C50.7261 68.421 51.5791 69.665 52.583 70.649C55.454 73.465 59.2351 75.016 63.23 75.016C67.133 75.016 70.805 73.524 73.5671 70.815C76.3921 68.044 77.949 64.323 77.95 60.338C77.95 56.266 76.3351 52.438 73.3991 49.555C72.4951 48.664 71.366 47.897 70.116 47.232ZM31.9641 28.951C34.6531 26.307 39.091 26.385 41.876 29.122C44.802 31.997 46.0251 42.976 46.0041 42.999C45.9821 43.021 35.0631 41.569 32.1381 38.694C29.352 35.956 29.2751 31.594 31.9641 28.951ZM41.7971 64.022C39.0371 66.612 34.642 66.683 31.9781 64.183C29.3151 61.683 29.3911 57.556 32.1501 54.966C35.0471 52.247 45.9891 50.991 46.0111 51.012C46.0321 51.033 44.6951 61.303 41.7971 64.022ZM68.0501 64.184C65.3811 66.684 60.9771 66.613 58.2121 64.023C55.3081 61.303 53.9681 51.034 53.9901 51.013C54.0111 50.992 64.974 52.248 67.879 54.967C70.643 57.557 70.7191 61.684 68.0501 64.184ZM67.88 38.786C64.977 41.684 54.0191 43.022 53.9971 42.999C53.9751 42.977 55.314 32.036 58.217 29.138C60.981 26.379 65.3841 26.303 68.0521 28.967C70.7201 31.63 70.643 36.026 67.88 38.786Z" fill="black"/>
<path fill-rule="evenodd" clip-rule="evenodd" d="M100 39H74.981C79.342 33 78.936 24.668 73.683 19.361C72.3214 17.9787 70.6975 16.8823 68.9064 16.1361C67.1153 15.39 65.1933 15.0092 63.253 15.016C59.867 15.016 56.651 16.153 53.999 18.229V0H45.999V18.214C43.348 16.135 40.13 14.988 36.746 14.988C32.794 14.988 29.091 16.502 26.316 19.302C21.031 24.645 20.651 33 25.102 39H0V47H25.316C23.1985 49.6508 22.0461 52.9433 22.048 56.336C22.049 60.319 23.606 64.041 26.432 66.813C29.193 69.522 32.864 71.014 36.768 71.014C40.141 71.014 43.352 69.898 46 67.861V100H54V67.86C56.6431 69.9047 59.8904 71.0137 63.232 71.013C67.135 71.013 70.807 69.521 73.569 66.812C76.394 64.041 77.951 60.32 77.952 56.335C77.952 52.908 76.796 49.662 74.684 46.999H100V39ZM58.217 25.138C60.981 22.379 65.384 22.303 68.052 24.967C70.72 27.631 70.643 32.027 67.88 34.786C64.984 37.676 54.081 39.014 54 38.999V38.956C54.069 38.228 55.415 27.936 58.217 25.138ZM31.964 24.951C34.653 22.307 39.091 22.385 41.876 25.122C44.688 27.885 45.926 38.125 46 38.942V38.999C45.898 39.01 35.052 37.559 32.138 34.694C29.352 31.956 29.275 27.594 31.964 24.951ZM41.797 60.022C39.037 62.612 34.642 62.683 31.978 60.183C29.315 57.683 29.391 53.556 32.15 50.966C35.018 48.275 45.764 47.018 46.001 47.012V47.12C45.869 48.216 44.525 57.462 41.797 60.022ZM68.05 60.184C65.381 62.684 60.977 62.613 58.212 60.023C55.471 57.455 54.124 48.167 54 47.114V47.013C54.217 47.016 65.001 48.273 67.879 50.967C70.643 53.557 70.719 57.684 68.05 60.184Z" fill="white"/>
<path opacity="0.2" fill-rule="evenodd" clip-rule="evenodd" d="M94 100H6C2.687 100 0 97.313 0 93.999V80C0 81.5913 0.632141 83.1174 1.75736 84.2426C2.88258 85.3679 4.4087 86 6 86H94C95.5913 86 97.1174 85.3679 98.2426 84.2426C99.3679 83.1174 100 81.5913 100 80V93.999C100 95.5904 99.3679 97.1166 98.2427 98.242C97.1175 99.3674 95.5914 99.9997 94 100Z" fill="black"/>
</svg>
